<mxfile host="app.diagrams.net" modified="2023-11-15T20:51:19.376Z" agent="Mozilla/5.0 (Windows NT 10.0; Win64; x64) AppleWebKit/537.36 (KHTML, like Gecko) Chrome/119.0.0.0 Safari/537.36" version="22.1.1" etag="cM85j7wkz2hM2U2noUwY" type="github">
  <diagram name="PÃ¡gina-1" id="5PoS5-wvYCGuvaoQvgXu">
    <mxGraphModel>
      <root>
        <mxCell id="0" />
        <mxCell id="1" parent="0" />
      </root>
    </mxGraphModel>
  </diagram>
</mxfile>
